<svg xmlns="http://www.w3.org/2000/svg" viewBox="0 0 160 48" width="160" height="48">
  <defs>
    <linearGradient id="c-vl" x1="0" y1="0" x2="1" y2="1">
      <stop offset="0%" stop-color="#34d399"/>
      <stop offset="100%" stop-color="#14b8a6"/>
    </linearGradient>
    <linearGradient id="c-hb" x1="0" y1="0" x2="1" y2="1">
      <stop offset="0%" stop-color="#38bdf8"/>
      <stop offset="100%" stop-color="#3b82f6"/>
    </linearGradient>
  </defs>

  <!-- VentureLens mini icon -->
  <g transform="translate(0, 0)">
    <rect width="48" height="48" rx="10" fill="url(#c-vl)"/>
    <polygon points="24,12 19.2,4.8 28.8,4.8" fill="white" opacity="0.45"/>
    <path d="M21.6,14.4 Q24,11.4 26.4,14.4" fill="white"/>
    <rect x="20.4" y="14.4" width="7.2" height="3.3" rx="0.6" fill="white"/>
    <path d="M21.1,17.7 L20,37.8 L28,37.8 L26.9,17.7 Z" fill="white"/>
    <rect x="18" y="37.8" width="12" height="2.6" rx="0.8" fill="white"/>
  </g>

  <!-- Plus symbol -->
  <g transform="translate(60, 12)">
    <rect x="8" y="0" width="5" height="24" rx="2.5" fill="#94a3b8"/>
    <rect x="0" y="9.5" width="21" height="5" rx="2.5" fill="#94a3b8"/>
  </g>

  <!-- Harbour mini icon -->
  <g transform="translate(112, 0)">
    <rect width="48" height="48" rx="10" fill="url(#c-hb)"/>
    <path d="M24,7.2 L24,31.8 L10.2,31.8 Z" fill="white" opacity="0.9"/>
    <path d="M24,9 L24,31.8 L36,31.8 Z" fill="white" opacity="0.65"/>
    <path d="M6,34.2 L10.2,31.8 L37.8,31.8 L42,34.2 L39.6,37.2 L8.4,37.2 Z" fill="white"/>
    <path d="M4.8,40.2 Q9.6,38.7 24,40.2 Q38.4,38.7 43.2,40.2" stroke="white" stroke-width="1.2" stroke-linecap="round" fill="none" opacity="0.5"/>
  </g>
</svg>
